<?xml version="1.0" encoding="UTF-8" standalone="no"?>
<svg
   xmlns:dc="http://purl.org/dc/elements/1.1/"
   xmlns:cc="http://creativecommons.org/ns#"
   xmlns:rdf="http://www.w3.org/1999/02/22-rdf-syntax-ns#"
   xmlns:svg="http://www.w3.org/2000/svg"
   xmlns="http://www.w3.org/2000/svg"
   viewBox="0 0 874.6485 60.984001"
   height="60.984001"
   width="874.6485"
   xml:space="preserve"
   version="1.1"
   id="svg2"><metadata
     id="metadata8"><rdf:RDF><cc:Work
         rdf:about=""><dc:format>image/svg+xml</dc:format><dc:type
           rdf:resource="http://purl.org/dc/dcmitype/StillImage" /><dc:title></dc:title></cc:Work></rdf:RDF></metadata><defs
     id="defs6"><clipPath
       id="clipPath20"
       clipPathUnits="userSpaceOnUse"><path
         id="path22"
         d="M 0,800 800,800 800,0 0,0 0,800 Z" /></clipPath></defs><g
     transform="matrix(1.25,0,0,-1.25,-62.785,558.748)"
     id="g10"><g
       transform="translate(218.7236,399.1484)"
       id="g12"><path
         id="path14"
         style="fill:#888888;fill-opacity:1;fill-rule:nonzero;stroke:none"
         d="m 0,0 -26.409,27.412 0,-27.412 -9.381,0 0,46.983 2.95,0 25.93,-26.273 0,26.273 9.38,0 L 2.47,0 0,0 Z" /></g><g
       id="g16"><g
         clip-path="url(#clipPath20)"
         id="g18"><g
           transform="translate(356.7139,428.1006)"
           id="g24"><path
             id="path26"
             style="fill:#888888;fill-opacity:1;fill-rule:nonzero;stroke:none"
             d="m 0,0 0,-4.755 c 0,-14.744 -10.72,-24.999 -23.315,-24.999 l -0.073,0 c -13.468,0.137 -24.189,10.921 -24.06,24.39 0.143,13.334 11,24.054 24.326,24.054 l 0.207,0 c 5.693,-0.065 10.855,-2.077 14.937,-5.357 l -6.766,-6.631 c -2.413,1.676 -5.22,2.543 -8.235,2.614 l -0.143,0 c -3.945,0 -7.698,-1.546 -10.513,-4.354 -2.813,-2.75 -4.425,-6.502 -4.425,-10.462 -0.064,-3.945 1.475,-7.77 4.225,-10.583 2.807,-2.879 6.566,-4.49 10.52,-4.49 6.831,0 12.66,4.89 14.4,11.192 l -17.787,0 0,9.381 L 0,0 Z" /></g><g
           transform="translate(398.1895,446.1318)"
           id="g28"><path
             id="path30"
             style="fill:#888888;fill-opacity:1;fill-rule:nonzero;stroke:none"
             d="m 0,0 -15.281,-29.754 0,-17.229 -9.381,0 0,17.229 L -40.008,0 -29.617,0 -19.971,-17.695 -10.383,0 0,0 Z" /></g><g
           transform="translate(472.9062,422.6724)"
           id="g32"><path
             id="path34"
             style="fill:#888888;fill-opacity:1;fill-rule:nonzero;stroke:none"
             d="m 0,0 c 0,-8.106 6.561,-14.672 14.674,-14.672 8.105,0 14.672,6.566 14.672,14.672 0,8.113 -6.567,14.673 -14.672,14.673 C 6.561,14.673 0,8.113 0,0 m 38.998,0 c 0,-13.405 -10.928,-24.326 -24.324,-24.326 -13.399,0 -24.326,10.921 -24.326,24.326 0,13.398 10.927,24.326 24.326,24.326 C 28.07,24.326 38.998,13.398 38.998,0" /></g><g
           transform="translate(568.9922,422.6724)"
           id="g36"><path
             id="path38"
             style="fill:#888888;fill-opacity:1;fill-rule:nonzero;stroke:none"
             d="m 0,0 c 0,-8.106 6.566,-14.672 14.672,-14.672 8.105,0 14.672,6.566 14.672,14.672 0,8.113 -6.567,14.673 -14.672,14.673 C 6.566,14.673 0,8.113 0,0 m 38.998,0 c 0,-13.405 -10.922,-24.326 -24.326,-24.326 -13.406,0 -24.326,10.921 -24.326,24.326 0,13.398 10.92,24.326 24.326,24.326 13.404,0 24.326,-10.928 24.326,-24.326" /></g><g
           transform="translate(647.1172,446.1318)"
           id="g40"><path
             id="path42"
             style="fill:#888888;fill-opacity:1;fill-rule:nonzero;stroke:none"
             d="m 0,0 0,-9.396 -12.998,0 0,-37.587 -9.381,0 0,37.587 -13.06,0 0,9.396 L 0,0 Z" /></g><path
           id="path44"
           style="fill:#888888;fill-opacity:1;fill-rule:nonzero;stroke:none"
           d="m 653.01,446.132 9.381,0 0,-46.911 -9.381,0 0,46.911 z" /><g
           transform="translate(703.8164,434.7383)"
           id="g46"><path
             id="path48"
             style="fill:#888888;fill-opacity:1;fill-rule:nonzero;stroke:none"
             d="m 0,0 c -9.115,5.894 -22.85,0.401 -22.85,-12.202 0,-13.197 14.543,-18.496 23.387,-11.794 l 6.029,-6.896 c -4.224,-3.487 -9.652,-5.635 -15.546,-5.635 -13.397,0 -24.325,10.927 -24.325,24.325 0,13.405 10.928,24.326 24.325,24.326 5.628,0 10.857,-1.941 15.009,-5.163 L 0,0 Z" /></g><g
           transform="translate(732.2598,419.0562)"
           id="g50"><path
             id="path52"
             style="fill:#888888;fill-opacity:1;fill-rule:nonzero;stroke:none"
             d="m 0,0 c -1.547,0.394 -4.426,1.139 -7.104,2.95 -3.751,2.478 -5.83,6.094 -6.037,10.584 -0.193,3.753 1.018,7.032 3.43,9.582 3.473,3.616 8.5,4.618 10.914,4.618 6.838,0 10.654,-2.478 14.07,-4.683 l 1.541,-1.009 -4.892,-7.971 -1.676,1.067 c -3.014,1.948 -4.955,3.223 -9.043,3.223 -0.601,0 -2.951,-0.473 -4.154,-1.748 -0.401,-0.401 -0.865,-1.138 -0.801,-2.678 0.064,-2.413 1.74,-3.752 6.029,-4.826 0.537,-0.129 0.938,-0.265 1.338,-0.401 4.49,-1.54 7.979,-3.617 10.391,-6.237 2.406,-2.672 3.681,-5.822 3.681,-9.174 0,-3.279 -1.404,-6.703 -3.751,-9.316 -2.75,-3.079 -6.567,-4.826 -10.786,-4.826 -2.084,0 -4.898,0.136 -8.25,1.145 -4.216,1.339 -7.968,3.681 -11.183,7.104 l 6.838,6.43 c 4.955,-5.292 10.511,-5.292 12.595,-5.292 3.881,0 5.149,3.545 5.149,4.755 0,2.55 -2.871,4.891 -7.77,6.567 L 0.33,-0.072 0,0 Z" /></g><g
           transform="translate(424.9141,399.2207)"
           id="g54"><path
             id="path56"
             style="fill:#888888;fill-opacity:1;fill-rule:nonzero;stroke:none"
             d="m 0,0 9.373,0 0,18.088 5.68,0 8.463,-18.16 9.982,0 -9.316,20.101 c 4.892,2.22 8.25,7.111 8.25,12.804 0,7.776 -6.301,14.135 -14.078,14.135 l -18.354,0 0,-9.381 18.354,0 c 2.613,0 4.689,-2.148 4.689,-4.754 0,-2.614 -2.076,-4.691 -4.689,-4.691 L 0,28.142 0,0 Z" /></g><g
           transform="translate(279.9844,427.3628)"
           id="g58"><path
             id="path60"
             style="fill:#888888;fill-opacity:1;fill-rule:nonzero;stroke:none"
             d="m 0,0 0,9.445 8.98,0 c 2.614,0 4.691,-2.148 4.691,-4.755 C 13.671,2.077 11.594,0 8.98,0 L 0,0 Z m 14.144,-28.214 9.981,0 -9.309,20.101 c 4.891,2.22 8.235,7.111 8.235,12.803 0,7.777 -6.293,14.136 -14.071,14.136 l -18.361,0 0,-18.826 0,-10.054 0,-18.088 9.381,0 0,18.088 5.672,0 8.472,-18.16 z" /></g><g
           transform="translate(230.3457,399.1484)"
           id="g62"><path
             id="path64"
             style="fill:#888888;fill-opacity:1;fill-rule:nonzero;stroke:none"
             d="m 0,0 31.093,0 0,9.389 -21.72,0 0,10.118 18.568,0 0,9.381 -18.568,0 0,8.7 21.913,0 0,9.395 L 0,46.983 0,0 Z" /></g><g
           transform="translate(142.2812,399.1484)"
           id="g66"><path
             id="path68"
             style="fill:#888888;fill-opacity:1;fill-rule:nonzero;stroke:none"
             d="m 0,0 0,0 31.092,0 0,9.389 -21.711,0 0,10.118 18.56,0 0,9.381 -18.56,0 0,8.7 21.912,0 0,9.395 L 0,46.983 0,46.912 0,0 Z" /></g><g
           transform="translate(537.3262,407.0254)"
           id="g70"><path
             id="path72"
             style="fill:#888888;fill-opacity:1;fill-rule:nonzero;stroke:none"
             d="m 0,0 c 3.373,0 6.072,2.636 6.072,6.138 0,3.372 -3.373,5.864 -6.881,5.864 l -7.347,0 L -8.156,0 0,0 Z m -0.937,19.421 c 3.435,0 5.798,2.7 5.798,6.072 0,3.373 -2.363,5.736 -5.798,5.736 l -7.219,0 0,-11.808 7.219,0 z m -15.92,19.829 16.728,0 c 8.02,0 14.229,-5.393 14.229,-12.475 0,-5.192 -4.254,-9.237 -7.418,-10.727 3.572,-1.146 8.763,-4.783 8.763,-10.985 0,-7.561 -6.472,-13.018 -14.701,-13.018 l -17.601,0 0,47.205 z" /></g><path
           id="path74"
           style="fill:#f4cc12;fill-opacity:1;fill-rule:nonzero;stroke:none"
           d="m 81.277,408.551 -31.049,0 0,-9.366 31.049,0 0,9.366 z" /><g
           transform="translate(50.2285,418.6553)"
           id="g76"><path
             id="path78"
             style="fill:#f4cc12;fill-opacity:1;fill-rule:nonzero;stroke:none"
             d="m 0,0 0,9.374 49.352,0 c 2.615,0 4.683,1.804 4.683,4.418 0,2.606 -2.068,4.311 -4.683,4.311 l -49.352,0 0,9.337 49.352,0.037 c 7.763,0 14.057,-6.36 14.057,-14.122 0,-5.693 -3.345,-10.577 -8.235,-12.782 l 9.303,-20.08 -9.969,0 L 45.328,0 0,0 Z" /></g></g></g></g></svg>